<?xml version="1.0" encoding="utf-8"?>
<!-- Generator: Adobe Illustrator 21.0.0, SVG Export Plug-In . SVG Version: 6.00 Build 0)  -->
<svg version="1.1" xmlns="http://www.w3.org/2000/svg" xmlns:xlink="http://www.w3.org/1999/xlink" x="0px" y="0px"
	 viewBox="0 0 56.1 61.3" style="enable-background:new 0 0 56.1 61.3;" xml:space="preserve">
<g id="圖層_2" style="display:none;">
	<rect style="display:inline;fill:#1A5CC6;" width="56.1" height="61.3"/>
</g>
<g id="圖層_1">
	<g>
		<path style="fill:#FFFFFF;" d="M25.9,40c0.9,0.3,2.2,0.4,3.6,0.4s2.7-0.2,3.6-0.4c0.3-0.1,0.4-0.3,0.3-0.6
			c-0.1-0.2-0.4-0.4-0.6-0.3c-0.8,0.2-2,0.4-3.3,0.4s-2.5-0.1-3.3-0.4c-0.3-0.1-0.5,0-0.6,0.3C25.5,39.6,25.7,39.9,25.9,40z"/>
		<path style="fill:#FFFFFF;" d="M34.5,41.4c-1.2,0.4-3,0.6-5,0.6s-3.8-0.2-5-0.6c-0.3-0.1-0.5,0-0.6,0.3c-0.1,0.2,0,0.5,0.3,0.6
			c1.3,0.4,3.2,0.6,5.3,0.6s4-0.2,5.3-0.6c0.3-0.1,0.4-0.3,0.3-0.6C35,41.5,34.7,41.3,34.5,41.4z"/>
		<path style="fill:#FFFFFF;" d="M32.8,43.9c-0.8,0.2-2,0.4-3.3,0.4s-2.5-0.1-3.3-0.4c-0.3-0.1-0.5,0-0.6,0.3
			c-0.1,0.2,0,0.5,0.3,0.6c0.9,0.3,2.2,0.4,3.6,0.4s2.7-0.2,3.6-0.4c0.3-0.1,0.4-0.3,0.3-0.6C33.3,44,33,43.8,32.8,43.9z"/>
	</g>
	<path style="fill:#FFFFFF;" d="M24.1,26.5c-1.3,0-2.3,1-2.3,2.5c0,0.5,0.1,0.9,0.3,1.3h0.8c0.2-0.5,0.7-0.8,1.2-0.8s1,0.3,1.2,0.8
		h0.8c0.2-0.4,0.3-0.9,0.3-1.3C26.4,27.5,25.4,26.5,24.1,26.5z"/>
	<path style="fill:#FFFFFF;" d="M34.9,26.5c-1.3,0-2.3,1-2.3,2.5c0,0.5,0.1,0.9,0.3,1.3h0.8c0.2-0.5,0.7-0.8,1.2-0.8s1,0.3,1.2,0.8
		h0.8c0.2-0.4,0.3-0.9,0.3-1.3C37.2,27.5,36.1,26.5,34.9,26.5z"/>
	<path style="fill:#FFFFFF;" d="M29.5,33.4c-0.5,0-1.9-0.8-1.7,0.1c0.1,0.7,1.1,1.2,1.7,1.2c0.7,0,1.6-0.5,1.7-1.2
		C31.4,32.6,30,33.4,29.5,33.4z"/>
	<path style="fill:#FFFFFF;" d="M14.2,37.7L14.2,37.7c2.1,1.1,3.3,1.6,5.6,1.6c2.7,0,4.1-0.8,5.4-1.6c1.2-0.7,2.2-1.3,4.4-1.3l0,0
		c2.2,0,3.2,0.6,4.4,1.3s2.6,1.6,5.4,1.6c2,0,3.1-0.4,4.9-1.3c0.7-0.4,2.3-1.4,3.7-2.2c-0.8-0.5-1.5-0.8-2.2-1
		c-0.5,0.3-0.9,0.5-1.3,0.7c-2.6,1.4-3.2,1.8-5,1.8c-2,0-2.9-0.5-4.1-1.2c-1.3-0.8-2.7-1.6-5.6-1.6l0,0c-2.9,0-4.3,0.9-5.6,1.6
		c-1.1,0.7-2.1,1.2-4.1,1.2c-1.9,0-2.7-0.4-5.1-1.8c-0.4-0.2-0.8-0.4-1.3-0.7l-0.1-0.2c-0.8,0.3-1.4,0.6-1.9,0.8
		C12.3,36.2,13.4,37.1,14.2,37.7z"/>
	<path style="fill:#FFFFFF;" d="M46.4,27C45,19.9,39,15.8,32.5,14.9c0.6-0.7,1.5-1.2,2.8-1.2c0.2,0,0.3,0,0.5,0
		c-0.7-0.3-1.4-0.5-2.2-0.5c-1.2,0-2.3,0.4-3.2,1.1c0.2-1.5,1.3-3.5,2.7-3.6c-0.2-0.1-0.5-0.1-0.7-0.1c-1.7,0-3.2,1.6-3.8,3.5
		c-0.9-1-2.2-1.8-3.6-2c1,0.6,1.7,1.6,2,2.7c-6.7,0.8-13,4.8-14.4,12.2c-1.7,0.4-2.8,3.1-2.5,6.2c0.2,2.5,1,4.6,2.3,5.3
		c2.2,8.8,9.9,11.4,16.9,11.4c0.1,0,0.2,0,0.2,0c0.1,0,0.2,0,0.2,0c6.9,0,14.7-2.4,16.9-11.4c1.3-0.7,2.1-2.8,2.3-5.3
		C49.2,30.1,48.1,27.4,46.4,27z M45.9,32.9c-0.2,1.7-0.7,2.4-0.8,2.7L44,36.2l-0.4,1.6c-1.2,4.7-4.2,7-7.7,8.1
		c-3.6,1.1-9.2,1.1-12.8,0c-3.5-1.1-6.5-3.4-7.7-8.1L15,36.2l-1-0.6c-0.1-0.3-0.7-1.1-0.8-2.7c-0.1-1.2,0.4-2.1,0.5-2.6l1.6-0.4
		l0.5-2.7c1.2-6.2,7.5-9.3,13.7-9.3c6.3,0,12.5,3.1,13.7,9.3l0.5,2.7l1.6,0.4C45.5,30.8,46,31.7,45.9,32.9z"/>
</g>
</svg>
