<?xml version="1.0" encoding="utf-8"?>
<!-- Generator: Adobe Illustrator 21.0.0, SVG Export Plug-In . SVG Version: 6.00 Build 0)  -->
<svg version="1.1" id="圖層_1" xmlns="http://www.w3.org/2000/svg" xmlns:xlink="http://www.w3.org/1999/xlink" x="0px" y="0px"
	 viewBox="0 0 56.1 39.6" style="enable-background:new 0 0 56.1 39.6;" xml:space="preserve">
<style type="text/css">
	.st0{fill:#395FAB;}
	.st1{fill:#FFFFFF;}
</style>
<g>
	<path class="st0" d="M93.7-47.4c0.1-0.2,0.4-0.4,0.7-0.4c0.3,0,0.5,0.2,0.7,0.4h0.5c0.1-0.2,0.2-0.4,0.2-0.7c0-0.7-0.6-1.2-1.3-1.2
		s-1.3,0.5-1.3,1.2c0,0.2,0.1,0.5,0.2,0.7H93.7z"/>
	<path class="st0" d="M99.9-47.4c0.1-0.2,0.4-0.4,0.7-0.4c0.3,0,0.5,0.2,0.7,0.4h0.5c0.1-0.2,0.2-0.4,0.2-0.7c0-0.7-0.6-1.2-1.3-1.2
		c-0.7,0-1.3,0.5-1.3,1.2c0,0.2,0.1,0.5,0.2,0.7H99.9z"/>
	<path class="st0" d="M106.9-51.4c-1.2-6.1-2.6-8.4-9.4-8.4c-7,0-8.2,2.3-9.4,8.4c-0.9,0.2-1.3,1.7-1.2,3.4c0.1,1.4,0.3,2.5,1.1,2.9
		c0.7,2.7,0.8,5.2,2.7,6.7c2.6,2.1,4.7,3.1,6.8,3.1c2.1,0,4.2-1,6.8-3.1c1.9-1.5,2.1-4,2.7-6.7c0.7-0.4,0.9-1.6,1.1-2.9
		C108.2-49.7,107.8-51.2,106.9-51.4z M88.6-49.7l0.9-0.2c2-6.6,4.2-3.9,8-3.9s6-2.8,8,3.9l0.9,0.2c0.1,0.3,0.1,0.8,0.1,1.4
		c-0.1,0.9-0.2,1.4-0.2,1.5l-0.6,0.3l-0.2,0.7c-0.2,0.1-0.5,0.3-0.7,0.4c-1.3,0.8-1.6,1-2.5,1c-1,0-1.5-0.3-2-0.7
		C99.7-45.5,99-46,97.5-46l0,0c-1.4,0-2.2,0.5-2.8,0.9c-0.6,0.4-1,0.7-2,0.7c-0.9,0-1.3-0.2-2.5-1c-0.2-0.1-0.4-0.2-0.6-0.4
		l-0.2-0.7l-0.6-0.3c-0.1-0.2-0.2-0.6-0.2-1.5C88.4-48.9,88.5-49.4,88.6-49.7z M103.3-39.6c-2.2,1.8-4.9,2.8-5.7,2.8l0,0l0,0
		c-0.9,0-3.5-1-5.7-2.8c-1.2-1-1.4-2.6-1.8-4.6c1,0.6,1.7,0.9,2.8,0.9c1.3,0,2-0.5,2.7-0.9c0.6-0.4,1.1-0.7,2.2-0.7l0,0
		c1.1,0,1.6,0.3,2.2,0.7s1.3,0.9,2.7,0.9c1.1,0,1.6-0.3,2.8-1C104.7-42.2,104.5-40.6,103.3-39.6z"/>
	<g>
		<path class="st0" d="M95-42.2c0.6,0.2,1.5,0.3,2.5,0.3s1.9-0.1,2.5-0.3c0.2-0.1,0.3-0.3,0.2-0.4c-0.1-0.2-0.3-0.3-0.4-0.2
			c-0.5,0.2-1.4,0.3-2.3,0.3s-1.8-0.1-2.3-0.3c-0.2-0.1-0.4,0-0.4,0.2C94.7-42.4,94.8-42.3,95-42.2z"/>
		<path class="st0" d="M101-41.1c-0.8,0.3-2.1,0.5-3.5,0.5s-2.7-0.2-3.5-0.5c-0.2-0.1-0.4,0-0.4,0.2c-0.1,0.2,0,0.4,0.2,0.4
			c0.9,0.3,2.3,0.5,3.7,0.5c1.5,0,2.8-0.2,3.7-0.5c0.2-0.1,0.3-0.3,0.2-0.4C101.4-41,101.2-41.1,101-41.1z"/>
		<path class="st0" d="M99.8-39.2c-0.5,0.2-1.4,0.3-2.3,0.3s-1.8-0.1-2.3-0.3c-0.2-0.1-0.4,0-0.4,0.2c-0.1,0.2,0,0.4,0.2,0.4
			c0.6,0.2,1.5,0.3,2.5,0.3s1.9-0.1,2.5-0.3c0.2-0.1,0.3-0.3,0.2-0.4C100.2-39.1,100-39.2,99.8-39.2z"/>
	</g>
</g>
<g>
	<path class="st1" d="M179.9-10l-7,4.9L170,1.6l-3,2.9l0.6,6c0,0,1.3,3.1,1.5,3.6S171,23,171,23l4,3.7c0,0,5.8,3.3,6.3,3.7
		c0.5,0.4,4.7,1.7,4.7,1.7l4.2-1.1l4.4-1.9l4.8-2.5l2.6-3.7l2.3-8.7V12l2-1.6v-6l-2.8-3.6l-3.3-7.3c0,0-8.6-4.3-9.6-4.4
		S179.9-10,179.9-10z"/>
	<path class="st0" d="M179.3,9.2c0.3-0.5,0.8-0.8,1.4-0.8c0.6,0,1.1,0.3,1.4,0.8h0.9c0.2-0.4,0.4-0.9,0.4-1.3c0-1.5-1.2-2.4-2.6-2.4
		c-1.5,0-2.6,1-2.6,2.4c0,0.5,0.1,0.9,0.4,1.3H179.3z"/>
	<path class="st0" d="M191.5,9.2c0.3-0.5,0.8-0.8,1.4-0.8c0.6,0,1.1,0.3,1.4,0.8h0.9c0.2-0.4,0.4-0.9,0.4-1.3c0-1.5-1.2-2.4-2.6-2.4
		c-1.5,0-2.6,1-2.6,2.4c0,0.5,0.1,0.9,0.4,1.3H191.5z"/>
	<path class="st0" d="M205.4,1.3c-2.4-12.2-5.1-16.8-18.7-16.8c-13.9,0-16.3,4.6-18.7,16.8c-1.9,0.5-2.7,3.4-2.4,6.8
		c0.2,2.8,0.7,5,2.1,5.9c1.3,5.3,1.7,10.4,5.5,13.4c5.2,4.1,9.3,6.2,13.5,6.1c4.1,0,8.3-2,13.5-6.1c3.8-3,4.1-8.1,5.5-13.4
		c1.5-0.8,1.9-3.1,2.1-5.9C208.1,4.7,207.3,1.8,205.4,1.3z M169,4.6l1.8-0.5c4-13.2,8.4-7.7,16-7.7s12-5.5,16,7.7l1.8,0.5
		c0.1,0.5,0.3,1.5,0.2,2.9c-0.2,1.9-0.4,2.7-0.5,3.1l-1.2,0.7l-0.3,1.3c-0.5,0.3-0.9,0.5-1.3,0.8c-2.6,1.6-3.2,1.9-5,1.9
		c-2,0-2.9-0.6-4-1.3c-1.3-0.8-2.7-1.8-5.6-1.8l0,0c-2.8,0-4.3,0.9-5.6,1.8c-1.1,0.7-2.1,1.3-4.1,1.3c-1.8,0-2.6-0.5-5-1.9
		c-0.4-0.2-0.8-0.5-1.2-0.8l-0.3-1.3l-1.2-0.7c-0.1-0.4-0.3-1.2-0.5-3.1C168.7,6.2,168.8,5.2,169,4.6z M198.3,24.8
		c-4.4,3.5-9.7,5.5-11.4,5.5h-0.1h-0.1c-1.7,0-7.1-2-11.4-5.5c-2.4-1.9-2.9-5.2-3.7-9.1c2.1,1.3,3.3,1.9,5.6,1.9
		c2.7,0,4.1-0.9,5.3-1.7c1.2-0.8,2.2-1.4,4.3-1.4l0,0c2.2,0,3.2,0.7,4.3,1.4c1.2,0.8,2.6,1.7,5.3,1.7c2.2,0,3.3-0.5,5.6-1.9
		C201.2,19.6,200.7,22.9,198.3,24.8z"/>
	<g>
		<path class="st0" d="M181.7,19.6c1.2,0.4,3.1,0.7,5,0.7c2,0,3.8-0.2,5-0.7c0.4-0.1,0.5-0.5,0.4-0.9s-0.5-0.5-0.9-0.4
			c-1.1,0.4-2.8,0.6-4.6,0.6s-3.5-0.2-4.6-0.6c-0.4-0.1-0.7,0.1-0.9,0.4C181.2,19.1,181.4,19.5,181.7,19.6z"/>
		<path class="st0" d="M193.7,21.8c-1.6,0.6-4.3,0.9-7,0.9s-5.4-0.3-7-0.9c-0.4-0.1-0.7,0.1-0.9,0.4c-0.1,0.4,0.1,0.7,0.4,0.9
			c1.8,0.6,4.5,1,7.4,1s5.6-0.4,7.4-1c0.4-0.1,0.5-0.5,0.4-0.9C194.5,21.9,194.1,21.7,193.7,21.8z"/>
		<path class="st0" d="M191.3,25.7c-1.1,0.4-2.8,0.6-4.6,0.6s-3.5-0.2-4.6-0.6c-0.4-0.1-0.7,0.1-0.9,0.4c-0.1,0.4,0.1,0.7,0.4,0.9
			c1.2,0.4,3.1,0.7,5,0.7c2,0,3.8-0.2,5-0.7c0.4-0.1,0.5-0.5,0.4-0.9C192.1,25.7,191.7,25.5,191.3,25.7z"/>
	</g>
</g>
<circle class="st0" cx="-106.6" cy="9" r="29.8"/>
<g>
	<path class="st1" d="M-91.2,3.6c-2-10.1-4.2-13.9-15.5-13.9c-11.5,0-13.5,3.8-15.5,13.9c-1.5,0.4-2.2,2.8-2,5.6
		c0.2,2.3,0.5,4.2,1.8,4.9c1.1,4.4,1.4,8.6,4.5,11.1c4.3,3.4,7.7,5.1,11.2,5.1c3.4,0,6.9-1.7,11.2-5.1c3.1-2.5,3.4-6.7,4.5-11.1
		c1.2-0.7,1.6-2.6,1.8-4.9C-88.9,6.4-89.6,4-91.2,3.6z M-121.4,6.4l1.5-0.4c3.3-11,6.9-6.4,13.2-6.4c6.3,0,10-4.6,13.2,6.4l1.5,0.4
		c0.1,0.4,0.2,1.3,0.1,2.4c-0.1,1.6-0.3,2.3-0.4,2.5l-1,0.5l-0.3,1.1c-0.4,0.2-0.7,0.4-1.1,0.6c-2.1,1.3-2.6,1.6-4.1,1.6
		c-1.7,0-2.4-0.5-3.4-1.1c-1-0.7-2.2-1.5-4.6-1.5l0,0c-2.4,0-3.6,0.8-4.6,1.5c-0.9,0.6-1.7,1.1-3.4,1.1c-1.5,0-2.2-0.4-4.2-1.6
		c-0.3-0.2-0.7-0.4-1-0.6l-0.3-1.1l-1-0.5c-0.1-0.3-0.3-1-0.4-2.5C-121.6,7.7-121.5,6.8-121.4,6.4z M-97.1,23.1
		c-3.6,2.9-8,4.6-9.5,4.6h-0.1h-0.1c-1.4,0-5.8-1.7-9.5-4.6c-2-1.6-2.4-4.3-3-7.6c1.7,1,2.7,1.6,4.6,1.6c2.2,0,3.4-0.8,4.4-1.4
		c1-0.6,1.8-1.2,3.6-1.2l0,0c1.8,0,2.7,0.5,3.6,1.2c1,0.7,2.1,1.4,4.4,1.4c1.9,0,2.7-0.4,4.6-1.6C-94.7,18.8-95.1,21.5-97.1,23.1z"
		/>
	<path class="st1" d="M-112.8,10.2c0.2-0.4,0.7-0.7,1.1-0.7c0.5,0,0.9,0.3,1.1,0.7h0.8c0.2-0.3,0.3-0.7,0.3-1.1c0-1.2-1-2-2.2-2
		s-2.2,0.8-2.2,2c0,0.4,0.1,0.8,0.3,1.1H-112.8z"/>
	<path class="st1" d="M-102.7,10.2c0.2-0.4,0.7-0.7,1.1-0.7c0.5,0,0.9,0.3,1.1,0.7h0.8c0.2-0.3,0.3-0.7,0.3-1.1c0-1.2-1-2-2.2-2
		s-2.2,0.8-2.2,2c0,0.4,0.1,0.8,0.3,1.1H-102.7z"/>
	<g>
		<path class="st1" d="M-110.8,18.8c1,0.4,2.5,0.6,4.2,0.6s3.2-0.2,4.2-0.6c0.3-0.1,0.5-0.4,0.3-0.7c-0.1-0.3-0.4-0.5-0.7-0.3
			c-0.9,0.3-2.3,0.5-3.8,0.5s-2.9-0.2-3.8-0.5c-0.3-0.1-0.6,0.1-0.7,0.3C-111.3,18.4-111.1,18.7-110.8,18.8z"/>
		<path class="st1" d="M-100.8,20.6c-1.4,0.5-3.5,0.8-5.8,0.8s-4.4-0.3-5.8-0.8c-0.3-0.1-0.6,0.1-0.7,0.3c-0.1,0.3,0.1,0.6,0.3,0.7
			c1.5,0.5,3.7,0.8,6.2,0.8s4.7-0.3,6.2-0.8c0.3-0.1,0.5-0.4,0.3-0.7C-100.2,20.7-100.5,20.5-100.8,20.6z"/>
		<path class="st1" d="M-102.8,23.8c-0.9,0.3-2.3,0.5-3.8,0.5s-2.9-0.2-3.8-0.5c-0.3-0.1-0.6,0.1-0.7,0.3c-0.1,0.3,0.1,0.6,0.3,0.7
			c1,0.4,2.5,0.6,4.2,0.6s3.2-0.2,4.2-0.6c0.3-0.1,0.5-0.4,0.3-0.7C-102.2,23.8-102.5,23.7-102.8,23.8z"/>
	</g>
</g>
<g>
	<g>
		<path class="st0" d="M115.3-34.8c0.4,0.1,1.1,0.2,1.8,0.2c0.7,0,1.4-0.1,1.8-0.2c0.1,0,0.2-0.2,0.1-0.3c0-0.1-0.2-0.2-0.3-0.1
			c-0.4,0.1-1,0.2-1.6,0.2s-1.2-0.1-1.6-0.2c-0.1,0-0.3,0-0.3,0.1C115.1-35,115.2-34.9,115.3-34.8z"/>
		<path class="st0" d="M119.6-34.1c-0.6,0.2-1.5,0.3-2.5,0.3s-1.9-0.1-2.5-0.3c-0.1,0-0.3,0-0.3,0.1s0,0.2,0.1,0.3
			c0.6,0.2,1.6,0.3,2.6,0.3s2-0.1,2.6-0.3C119.7-33.7,119.8-33.9,119.6-34.1C119.8-34.1,119.7-34.1,119.6-34.1z"/>
		<path class="st0" d="M118.7-32.8c-0.4,0.1-1,0.2-1.6,0.2s-1.2-0.1-1.6-0.2c-0.1,0-0.3,0-0.3,0.1s0,0.2,0.1,0.3
			c0.4,0.1,1.1,0.2,1.8,0.2c0.7,0,1.4-0.1,1.8-0.2c0.1,0,0.2-0.2,0.1-0.3C119-32.8,118.8-32.9,118.7-32.8z"/>
	</g>
	<path class="st0" d="M114.4-41.6c-0.6,0-1.2,0.5-1.2,1.2c0,0.2,0.1,0.5,0.2,0.7h0.4c0.1-0.2,0.4-0.4,0.6-0.4s0.5,0.2,0.6,0.4h0.4
		c0.1-0.2,0.2-0.4,0.2-0.7C115.5-41.1,115-41.6,114.4-41.6z"/>
	<path class="st0" d="M119.8-41.6c-0.6,0-1.2,0.5-1.2,1.2c0,0.2,0.1,0.5,0.2,0.7h0.4c0.1-0.2,0.4-0.4,0.6-0.4s0.5,0.2,0.6,0.4h0.4
		c0.1-0.2,0.2-0.4,0.2-0.7C120.9-41.1,120.4-41.6,119.8-41.6z"/>
	<path class="st0" d="M117.1-38.1c-0.2,0-0.9-0.4-0.9,0.1c0.1,0.3,0.5,0.6,0.9,0.6c0.3,0,0.8-0.3,0.9-0.6
		C118-38.5,117.3-38.1,117.1-38.1z"/>
	<path class="st0" d="M109.4-35.9L109.4-35.9c1,0.5,1.7,0.8,2.8,0.8c1.3,0,2.1-0.4,2.7-0.8c0.6-0.3,1.1-0.6,2.2-0.6l0,0
		c1.1,0,1.6,0.3,2.2,0.6c0.6,0.4,1.3,0.8,2.7,0.8c1,0,1.5-0.2,2.4-0.7c0.3-0.2,1.2-0.7,1.8-1.1c-0.4-0.2-0.8-0.4-1.1-0.5
		c-0.2,0.1-0.5,0.2-0.7,0.4c-1.3,0.7-1.6,0.9-2.5,0.9c-1,0-1.5-0.3-2-0.6c-0.6-0.4-1.4-0.8-2.8-0.8l0,0c-1.4,0-2.2,0.4-2.8,0.8
		c-0.6,0.3-1,0.6-2,0.6c-0.9,0-1.3-0.2-2.5-0.9c-0.2-0.1-0.4-0.2-0.6-0.3v-0.1c-0.4,0.1-0.7,0.3-0.9,0.4
		C108.5-36.7,109-36.3,109.4-35.9z"/>
	<path class="st0" d="M125.5-41.3c-0.7-3.6-3.7-5.6-7-6.1c0.3-0.4,0.8-0.6,1.4-0.6c0.1,0,0.2,0,0.2,0c-0.4-0.2-0.7-0.2-1.1-0.2
		c-0.6,0-1.1,0.2-1.6,0.5c0.1-0.7,0.7-1.8,1.4-1.8c-0.1,0-0.2,0-0.4,0c-0.9,0-1.6,0.8-1.9,1.7c-0.5-0.5-1.1-0.9-1.8-1
		c0.5,0.3,0.9,0.8,1,1.4c-3.4,0.4-6.5,2.4-7.2,6.1c-0.8,0.2-1.4,1.5-1.3,3.1c0.1,1.3,0.5,2.3,1.2,2.7c1.1,4.4,5,5.7,8.5,5.7h0.1h0.1
		c3.4,0,7.3-1.2,8.5-5.7c0.7-0.4,1-1.4,1.2-2.7C126.9-39.8,126.4-41.1,125.5-41.3z M125.3-38.3c-0.1,0.8-0.4,1.2-0.4,1.4l-0.5,0.3
		l-0.2,0.8c-0.6,2.4-2.1,3.5-3.8,4c-1.8,0.6-4.6,0.5-6.4,0c-1.7-0.5-3.2-1.7-3.8-4l-0.2-0.8l-0.5-0.3c-0.1-0.2-0.3-0.5-0.4-1.4
		c-0.1-0.6,0.2-1,0.3-1.3l0.8-0.2l0.3-1.3c0.6-3.1,3.7-4.7,6.9-4.7c3.2,0,6.3,1.6,6.9,4.7l0.3,1.3l0.8,0.2
		C125.1-39.4,125.3-38.9,125.3-38.3z"/>
</g>
<path class="st0" d="M51.9,38.1h-47c-1,0-1.9-1.4-1.9-3v-8.7c0-1.6,0.9-3,1.9-3h47c1,0,1.9,1.4,1.9,3v8.7
	C53.9,36.7,53.1,38.1,51.9,38.1z"/>
<g>
	<path class="st1" d="M34.1,16.1l4.3-1h5.2l2.2,1.5l3.5,3.5l1.2,2.6l1.1,1.6l0.2,2.8L50.4,29c0,0-0.9,3.4-1.1,3.5
		c-0.2,0.2-3.8,3-3.8,3l-4.6,0.6l-5.1-0.6L32,33.2c0,0-2.8-3.9-2.6-4.1c0.4-0.2-0.9-3.8-0.9-3.8l0.9-1.9l1.2-2.3l1.7-3L34.1,16.1z"
		/>
	<g>
		<g>
			<path class="st0" d="M38.1,30.7c0.6,0.2,1.5,0.2,2.3,0.2s1.8-0.1,2.3-0.2c0.1,0,0.2-0.2,0.2-0.4c0-0.1-0.2-0.2-0.4-0.1
				c-0.5,0.1-1.3,0.2-2.2,0.2s-1.7-0.1-2.2-0.2c-0.1,0-0.4,0-0.4,0.1C37.7,30.4,37.8,30.6,38.1,30.7z"/>
			<path class="st0" d="M43.7,31.5c-0.9,0.2-2.1,0.5-3.3,0.5c-1.2,0-2.6-0.1-3.3-0.4c-0.1,0-0.4,0-0.4,0.1c0,0.1,0,0.4,0.2,0.4
				c0.9,0.2,2.1,0.5,3.5,0.5s2.7-0.1,3.5-0.5c0.1,0,0.2-0.2,0.2-0.4C44,31.7,43.8,31.5,43.7,31.5z"/>
			<path class="st0" d="M42.6,33.2c-0.5,0.1-1.3,0.2-2.2,0.2s-1.7-0.1-2.2-0.2c-0.1,0-0.4,0-0.4,0.1c0,0.1,0,0.4,0.2,0.4
				c0.6,0.2,1.5,0.2,2.3,0.2s1.8-0.1,2.3-0.2c0.1,0,0.2-0.2,0.2-0.4C42.8,33.2,42.7,33.2,42.6,33.2z"/>
		</g>
		<path class="st0" d="M36.9,21.8c-0.9,0-1.6,0.6-1.6,1.6c0,0.4,0.1,0.6,0.2,0.9H36c0.1-0.4,0.5-0.5,0.9-0.5c0.4,0,0.6,0.2,0.9,0.5
			h0.5c0.1-0.2,0.2-0.6,0.2-0.9C38.3,22.4,37.7,21.8,36.9,21.8z"/>
		<path class="st0" d="M43.9,21.8c-0.9,0-1.6,0.6-1.6,1.6c0,0.4,0.1,0.6,0.2,0.9h0.5c0.1-0.4,0.5-0.5,0.9-0.5c0.4,0,0.6,0.2,0.9,0.5
			h0.5c0.1-0.2,0.2-0.6,0.2-0.9C45.5,22.4,44.8,21.8,43.9,21.8z"/>
		<path class="st0" d="M40.4,26.3c-0.4,0-1.2-0.5-1.1,0.1c0.1,0.5,0.7,0.7,1.1,0.7c0.5,0,1.1-0.4,1.1-0.7
			C41.6,25.8,40.8,26.3,40.4,26.3z"/>
		<path class="st0" d="M30.3,29.2C30.3,29.1,30.3,29.1,30.3,29.2c1.3,0.7,2.2,1.1,3.7,1.1c1.8,0,2.7-0.5,3.5-1
			c0.7-0.5,1.5-0.9,2.9-0.9l0,0c1.5,0,2.2,0.4,2.9,0.9c0.9,0.5,1.7,1,3.5,1c1.3,0,2.1-0.2,3.2-0.9c0.5-0.2,1.6-1,2.4-1.5
			c-0.5-0.4-1-0.5-1.5-0.6c-0.4,0.1-0.6,0.4-0.9,0.5c-1.7,1-2.1,1.1-3.3,1.1c-1.3,0-1.9-0.4-2.7-0.9c-0.9-0.5-1.8-1.1-3.8-1.1l0,0
			c-1.9,0-2.9,0.6-3.8,1.1c-0.7,0.5-1.3,0.9-2.7,0.9c-1.2,0-1.7-0.2-3.3-1.2c-0.2-0.1-0.5-0.2-0.9-0.5v-0.1
			c-0.5,0.2-0.9,0.4-1.2,0.5C29.1,28.1,29.7,28.7,30.3,29.2z"/>
		<path class="st0" d="M51.6,22c-1-4.7-4.9-7.3-9.1-8c0.4-0.5,1-0.7,1.8-0.7c0.1,0,0.2,0,0.4,0c-0.5-0.2-1-0.4-1.5-0.4
			c-0.7,0-1.5,0.2-2.1,0.7c0.1-1,0.9-2.3,1.8-2.4c-0.1,0-0.4-0.1-0.5-0.1c-1.1,0-2.1,1.1-2.4,2.3c-0.6-0.7-1.5-1.2-2.3-1.3
			c0.6,0.5,1.1,1.1,1.3,1.8c-4.5,0.5-8.6,3.2-9.5,8c-1.1,0.2-1.8,2.1-1.7,4c0.1,1.7,0.6,3,1.6,3.5C30.9,35.3,36,37,40.6,37h0.1h0.1
			c4.5,0,9.6-1.6,11.2-7.5c0.9-0.5,1.3-1.8,1.6-3.5C53.4,24.1,52.7,22.4,51.6,22z M51.1,25.9c-0.1,1.1-0.5,1.6-0.6,1.8l-0.7,0.4
			l-0.2,1.1c-0.7,3.2-2.8,4.6-5.1,5.4c-2.4,0.7-6.1,0.7-8.4,0c-2.3-0.7-4.3-2.2-5.1-5.4l-0.2-1.1l-0.7-0.4c-0.1-0.2-0.5-0.7-0.6-1.8
			c-0.1-0.9,0.2-1.3,0.4-1.7l1.1-0.2l0.4-1.8c0.9-4.1,4.9-6.1,9-6.1s8.3,2.1,9,6.1l0.4,1.8l1.1,0.2C50.9,24.6,51.2,25.2,51.1,25.9z"
			/>
	</g>
</g>
<g>
	<path class="st1" d="M11.8,7.1l-4.9,3.4L5,15.1l-2.1,1.9l0.5,4.1c0,0,0.9,2.2,1.1,2.6C4.7,24.1,5.8,30,5.8,30l2.8,2.6
		c0,0,4,2.3,4.4,2.6c0.4,0.2,3.3,1.2,3.3,1.2l2.9-0.7l3-1.3l3.3-1.7l1.8-2.6l1.6-6.1v-1.6l1.3-1.1v-4.1l-2.1-2.6l-2.3-5
		c0,0-6-2.9-6.7-3S11.8,7.1,11.8,7.1z"/>
	<path class="st0" d="M11.4,20.3c0.2-0.4,0.6-0.6,1-0.6c0.4,0,0.7,0.2,1,0.6H14c0.1-0.2,0.2-0.6,0.2-0.9c0-1-0.9-1.7-1.8-1.7
		s-1.8,0.7-1.8,1.7c0,0.4,0.1,0.6,0.2,0.9H11.4z"/>
	<path class="st0" d="M19.8,20.3c0.2-0.4,0.6-0.6,1-0.6s0.7,0.2,1,0.6h0.6c0.1-0.2,0.2-0.6,0.2-0.9c0-1-0.9-1.7-1.8-1.7
		c-1,0-1.8,0.7-1.8,1.7c0,0.4,0.1,0.6,0.2,0.9H19.8z"/>
	<path class="st0" d="M29.6,14.9C27.8,6.3,26,3.2,16.6,3.2C7,3.2,5.3,6.3,3.7,14.9c-1.3,0.4-1.8,2.3-1.7,4.7c0.1,1.9,0.5,3.5,1.5,4
		c1,3.7,1.2,7.2,3.8,9.3c3.7,2.8,6.5,4.3,9.4,4.3s5.7-1.3,9.4-4.3c2.7-2.1,2.8-5.6,3.8-9.3c1-0.6,1.3-2.2,1.5-4
		C31.4,17.2,30.8,15.2,29.6,14.9z M4.2,17.2l1.2-0.4c2.8-9.1,5.8-5.4,11.1-5.4c5.4,0,8.4-3.8,11.1,5.4l1.2,0.4
		c0.1,0.4,0.2,1.1,0.1,1.9c-0.1,1.3-0.2,1.8-0.4,2.2l-0.9,0.5l-0.1,0.9c-0.4,0.2-0.6,0.4-0.9,0.5c-1.8,1.1-2.2,1.3-3.4,1.3
		c-1.5,0-2.1-0.4-2.8-1c-0.9-0.6-1.8-1.2-3.9-1.2l0,0c-1.9,0-2.9,0.6-3.9,1.2c-0.7,0.5-1.5,1-2.8,1c-1.2,0-1.8-0.4-3.5-1.3
		c-0.2-0.1-0.6-0.4-0.9-0.5l-0.2-1l-0.9-0.5c-0.1-0.2-0.2-0.9-0.4-2.2C4,18.3,4.1,17.5,4.2,17.2z M24.6,31.2c-3,2.4-6.7,3.8-7.9,3.8
		c0,0,0,0-0.1,0c0,0,0,0-0.1,0c-1.2,0-4.9-1.3-7.9-3.8c-1.7-1.3-1.9-3.7-2.6-6.3c1.5,0.9,2.3,1.3,3.9,1.3c1.8,0,2.8-0.6,3.7-1.2
		c0.9-0.5,1.5-1,3-1l0,0c1.6,0,2.2,0.5,3,1c0.9,0.6,1.8,1.2,3.7,1.2c1.6,0,2.3-0.4,3.9-1.3C26.5,27.5,26.3,29.8,24.6,31.2z"/>
	<g>
		<path class="st0" d="M13,27.5c0.9,0.2,2.1,0.5,3.5,0.5c1.5,0,2.7-0.1,3.5-0.5c0.2-0.1,0.4-0.4,0.2-0.6c-0.1-0.2-0.4-0.4-0.6-0.2
			C19,26.9,17.7,27,16.5,27s-2.4-0.1-3.2-0.4c-0.2-0.1-0.5,0-0.6,0.2C12.6,27.2,12.8,27.5,13,27.5z"/>
		<path class="st0" d="M21.4,29.1c-1.1,0.4-2.9,0.6-4.9,0.6s-3.7-0.2-4.9-0.6c-0.2-0.1-0.5,0-0.6,0.2c-0.1,0.2,0,0.5,0.2,0.6
			c1.2,0.5,3.2,0.7,5.1,0.7s3.9-0.2,5.1-0.7c0.2-0.1,0.4-0.4,0.2-0.6C21.9,29.1,21.6,29,21.4,29.1z"/>
		<path class="st0" d="M19.7,31.8c-0.7,0.2-1.9,0.4-3.2,0.4s-2.4-0.1-3.2-0.4c-0.2-0.1-0.5,0-0.6,0.2c-0.1,0.2,0,0.5,0.2,0.6
			c0.9,0.2,2.1,0.5,3.5,0.5c1.5,0,2.7-0.1,3.5-0.5c0.2-0.1,0.4-0.4,0.2-0.6C20.3,31.8,19.9,31.7,19.7,31.8z"/>
	</g>
</g>
</svg>
