<?xml version="1.0" encoding="utf-8"?>
<!-- Generator: Adobe Illustrator 21.0.0, SVG Export Plug-In . SVG Version: 6.00 Build 0)  -->
<svg version="1.1" xmlns="http://www.w3.org/2000/svg" xmlns:xlink="http://www.w3.org/1999/xlink" x="0px" y="0px"
	 viewBox="0 0 56.1 61.3" style="enable-background:new 0 0 56.1 61.3;" xml:space="preserve">
<g id="圖層_2" style="display:none;">
	<rect style="display:inline;fill:#4A76BC;" width="56.1" height="61.3"/>
</g>
<g id="圖層_1">
	<path style="fill:#FFFFFF;" d="M21.3,30.9c0.3-0.5,0.8-0.8,1.4-0.8s1.1,0.3,1.4,0.8H25c0.2-0.4,0.4-0.9,0.4-1.3
		c0-1.5-1.2-2.4-2.6-2.4s-2.6,1-2.6,2.4c0,0.5,0.1,0.9,0.4,1.3H21.3z"/>
	<path style="fill:#FFFFFF;" d="M33.5,30.9c0.3-0.5,0.8-0.8,1.4-0.8c0.6,0,1.1,0.3,1.4,0.8h0.9c0.2-0.4,0.4-0.9,0.4-1.3
		c0-1.5-1.2-2.4-2.6-2.4c-1.5,0-2.6,1-2.6,2.4c0,0.5,0.1,0.9,0.4,1.3H33.5z"/>
	<path style="fill:#FFFFFF;" d="M47.4,23C45,10.7,42.3,6.2,28.7,6.2C14.8,6.2,12.4,10.8,10,23c-1.9,0.5-2.7,3.4-2.4,6.8
		c0.2,2.8,0.7,5,2.1,5.9c1.3,5.3,1.7,10.4,5.5,13.4c5.2,4.1,9.3,6.2,13.5,6.1c4.1,0,8.3-2,13.5-6.1c3.8-3,4.1-8.1,5.5-13.4
		c1.5-0.8,1.9-3.1,2.1-5.9C50.1,26.4,49.3,23.4,47.4,23z M11,26.3l1.8-0.5c4-13.2,8.4-7.7,16-7.7s12-5.5,16,7.7l1.8,0.5
		c0.1,0.5,0.3,1.5,0.2,2.9c-0.2,1.9-0.4,2.7-0.5,3.1L45,32.9l-0.3,1.3c-0.5,0.3-0.9,0.5-1.3,0.8c-2.6,1.6-3.2,1.9-5,1.9
		c-2,0-2.9-0.6-4-1.3c-1.3-0.8-2.7-1.8-5.6-1.8l0,0c-2.8,0-4.3,0.9-5.6,1.8C22,36.3,21.1,37,19.1,37c-1.8,0-2.6-0.5-5-1.9
		c-0.4-0.2-0.8-0.5-1.2-0.8L12.6,33l-1.2-0.7c-0.1-0.4-0.3-1.2-0.5-3.1C10.7,27.8,10.8,26.9,11,26.3z M40.3,46.5
		C35.9,50,30.6,52,28.8,52h-0.1h-0.1c-1.7,0-7.1-2-11.4-5.5c-2.4-1.9-2.9-5.2-3.7-9.1c2.1,1.3,3.3,1.9,5.6,1.9
		c2.7,0,4.1-0.9,5.3-1.7c1.2-0.8,2.2-1.4,4.3-1.4l0,0c2.2,0,3.2,0.7,4.3,1.4c1.2,0.8,2.6,1.7,5.3,1.7c2.2,0,3.3-0.5,5.6-1.9
		C43.2,41.3,42.7,44.5,40.3,46.5z"/>
	<g>
		<path style="fill:#FFFFFF;" d="M23.7,41.3c1.2,0.4,3.1,0.7,5,0.7s3.8-0.2,5-0.7c0.4-0.1,0.5-0.5,0.4-0.9s-0.5-0.5-0.9-0.4
			c-1.1,0.4-2.8,0.6-4.6,0.6S25.1,40.4,24,40c-0.4-0.1-0.7,0.1-0.9,0.4C23.2,40.8,23.4,41.2,23.7,41.3z"/>
		<path style="fill:#FFFFFF;" d="M35.7,43.5c-1.6,0.6-4.3,0.9-7,0.9s-5.4-0.3-7-0.9c-0.4-0.1-0.7,0.1-0.9,0.4
			c-0.1,0.4,0.1,0.7,0.4,0.9c1.8,0.6,4.5,1,7.4,1s5.6-0.4,7.4-1c0.4-0.1,0.5-0.5,0.4-0.9C36.5,43.6,36.1,43.4,35.7,43.5z"/>
		<path style="fill:#FFFFFF;" d="M33.3,47.3c-1.1,0.4-2.8,0.6-4.6,0.6s-3.5-0.2-4.6-0.6c-0.4-0.1-0.7,0.1-0.9,0.4
			c-0.1,0.4,0.1,0.7,0.4,0.9c1.2,0.4,3.1,0.7,5,0.7s3.8-0.2,5-0.7c0.4-0.1,0.5-0.5,0.4-0.9C34.1,47.4,33.7,47.2,33.3,47.3z"/>
	</g>
</g>
</svg>
